<svg width="25" height="25" viewBox="0 0 25 25" fill="none" xmlns="http://www.w3.org/2000/svg">
<path fill-rule="evenodd" clip-rule="evenodd" d="M18.5778 20.1428C16.6505 21.8272 14.1573 22.8429 11.4343 22.8429C5.3245 22.8429 0.371582 17.7294 0.371582 11.4215C0.371582 5.11357 5.3245 0 11.4343 0C17.544 0 22.4969 5.11357 22.4969 11.4215C22.4969 14.2328 21.5131 16.8068 19.8816 18.7967L24.3162 23.3752C24.6762 23.7469 24.6762 24.3495 24.3162 24.7212C23.9562 25.0929 23.3725 25.0929 23.0125 24.7212L18.5778 20.1428ZM20.6531 11.4215C20.6531 16.678 16.5257 20.9394 11.4343 20.9394C6.3428 20.9394 2.21536 16.678 2.21536 11.4215C2.21536 6.16488 6.3428 1.90358 11.4343 1.90358C16.5257 1.90358 20.6531 6.16488 20.6531 11.4215Z" fill="#687684"/>
</svg>
